<?xml version="1.0" encoding="utf-8"?>
<!-- Generator: Adobe Illustrator 22.1.0, SVG Export Plug-In . SVG Version: 6.00 Build 0)  -->
<svg version="1.1" id="Layer_1" xmlns="http://www.w3.org/2000/svg" xmlns:xlink="http://www.w3.org/1999/xlink" x="0px" y="0px"
	 viewBox="0 0 126 43.1" style="enable-background:new 0 0 126 43.1;" xml:space="preserve">
<style type="text/css">
	.st0{fill:#FFFFFF;}
</style>
<title>Asset 4</title>
<g id="Layer_2_1_">
	<g id="trace">
		<path class="st0" d="M21.6,12.4c0-0.3-0.1-0.6-0.1-0.8c-0.3,0.1-0.6,0.2-0.8,0.4c-1.1,0.8-2.1,1.8-2.9,2.8
			c1.3-0.1,2.5-0.6,3.5-1.5C21.5,13,21.6,12.7,21.6,12.4z"/>
		<path class="st0" d="M37.4,13.5L37.4,13.5z"/>
		<path class="st0" d="M0.5,15.8v26.8h109.7c8.5,0,15.3-6.9,15.3-15.3c0,0,0,0,0,0V0.5H15.8C7.4,0.5,0.5,7.4,0.5,15.8z M41.2,34.5
			c-0.8,0.4-1.7,0.7-2.6,0.7c-0.4,0-0.9,0-1.3-0.1l-0.3,0h-0.2l-0.2-0.1c-0.3-0.1-0.6-0.3-0.9-0.5c-0.4-0.3-0.7-0.6-0.9-1L33.5,34
			c-0.6,0.3-1.3,0.6-1.9,0.8c-0.2,0.1-0.4,0.1-0.6,0.2c-0.1,0-0.2,0.1-0.4,0.1c-0.2,0-0.4,0-0.5,0c-0.2,0-0.5,0-0.7-0.1
			c-0.3-0.1-0.5-0.2-0.7-0.4c-0.4-0.3-0.7-0.7-0.9-1.2c-0.2-0.5-0.3-1.1-0.2-1.6c0-0.4,0-0.8,0.1-1.1v-0.1c-0.8,0.3-1.7,0.5-2.6,0.5
			h-0.2c-0.6,1.2-1.6,2.2-2.7,3c-0.4,0.3-0.9,0.4-1.4,0.6c-0.3,0.1-0.5,0.1-0.8,0.1c-1,0.1-2-0.4-2.6-1.2c-1.1,0.4-2.2,0.8-3.3,1.1
			c-0.3,0.1-0.6,0.1-0.9,0.1c-1,0-1.9-0.3-2.6-1c-1.7-1.6-2-4.8-1-9.8c2.3-10.4,8.9-15,9.1-15.2S21,7.4,23,8.3
			c0.9,0.4,1.9,1.4,2.1,3.8c0.1,1.3-0.3,2.6-1.2,3.5c-2.3,2.6-7.3,2.8-7.9,2.8v-1.2c-1.4,2.4-2.4,4.9-3,7.6
			c-1.1,5.2-0.2,6.3-0.1,6.4c0.1,0.1,0.2,0.1,0.3,0.1c1.1-0.3,2.3-0.7,3.4-1.2c0-1,0.2-1.9,0.4-2.9c0.3-1.5,0.9-2.9,1.8-4.2
			c1-1.4,2.6-2.3,4.3-2.6c0.2,0,0.4,0,0.6,0c0.3,0,0.6,0.1,0.8,0.2c0.2,0.1,0.5,0.3,0.6,0.4c0.5,0.3,0.9,0.8,1.2,1.4
			c0.1,0.2,0.1,0.3,0.2,0.5c0,0.1,0.1,0.3,0.1,0.5v0.6c0,0.8,0,1.5-0.1,2.3c0,0.3-0.1,0.7-0.2,1c0.5-0.2,1-0.4,1.4-0.6l0,0
			c0-0.6,0.1-1.2,0.2-1.8c0.3-2.8,1.1-5.5,2.4-7.9c0.7-1.2,1.4-2.4,2.3-3.5c0.4-0.5,0.9-1.1,1.4-1.6c0.2-0.3,0.5-0.5,0.8-0.7L35,11
			l0.3-0.2c0.2-0.2,0.4-0.3,0.7-0.4c0.6-0.2,1.2-0.2,1.7,0.1c0.3,0.2,0.6,0.4,0.8,0.7c0.2,0.4,0.4,0.8,0.4,1.3c0,0.5,0,1-0.2,1.5
			c-0.2,0.8-0.4,1.4-0.6,2s-0.4,1.2-0.7,1.9s-0.5,1.3-0.8,1.9c-1.2,2.4-2.5,4.7-4,6.9c-0.4,0.5-0.8,1.1-1.2,1.6l-0.2,0.2l-0.1,0.1
			c0,0.1,0,0.2,0,0.4c0,0.7,0,1.5-0.1,2.2v0.1c0.3-0.1,0.7-0.3,1-0.4c0.9-0.4,1.8-0.9,2.6-1.4c0.2-0.9,0.6-1.8,1-2.7
			c0.3-0.7,0.8-1.3,1.2-1.9c0.3-0.4,0.6-0.7,1-1c0.6-0.5,1.4-0.7,2.2-0.6c0.5,0.1,1,0.3,1.4,0.6c0.4,0.4,0.7,1,0.8,1.6
			c0,0.6-0.1,1.3-0.4,1.8c-0.4,0.7-0.8,1.4-1.4,2c-0.8,0.8-1.6,1.6-2.6,2.3h0.1c0.2,0,0.4,0.1,0.6,0.1c0.4,0,0.7-0.1,1-0.3
			c0.3-0.1,0.5-0.4,0.7-0.6l3,1.8C42.7,33.4,42,34,41.2,34.5z M111,32.2c-1.3,0.7-3.5,0.8-5.5,0.6c-0.5,0.7-1.3,1.2-2.1,1.4
			c-1.8,0.5-3.8,0.3-5.5-0.4c-1.3,0.8-3.1,1.6-4.3,0.1l-0.1-0.2l-0.7,0.7c-0.6,0.6-1.5,0.9-2.3,0.9c-1.3-0.1-2.7-0.5-3.8-1.2
			c-0.7-0.4-1.1-1.2-0.8-2c-0.6,0.6-1.3,1.2-2,1.7c-1.1,0.9-2.5,1.2-3.8,0.9c-0.9-0.3-1.7-1-2.1-1.9c-1.5,0.9-3.3,1.2-5,1
			c-0.9-0.2-1.8-0.7-2.3-1.5c-2.1,1.3-4.1,2.1-5.3,1.8c-0.8-0.2-1.4-0.8-1.7-1.6L63,33c-2.8,1.5-5.2,1.7-7.2,0.7
			c-1.8-1.1-3-2.9-3.3-5c-1.1-6.4,1.1-12.9,5.9-17.3c3.3-2.9,6.1-4,8.5-3.2c2.9,1,3.6,4.3,3.7,4.7l-3.4,0.7c-0.1-0.4-0.5-1.7-1.4-2
			c-0.5-0.2-2-0.2-5,2.5c-3.9,3.6-5.7,8.9-4.8,14.1v0.1c0.1,1,0.7,1.8,1.5,2.4c1.1,0.6,2.7-0.1,3.9-0.7c2.8-1.5,3-2.3,3-2.4
			c-0.1-0.2-0.3-0.4-0.5-0.5H63c-0.6,0-2.4-0.1-2.5-1.8s1.8-2,2.5-2.1l0.4-0.1l0.4,0.1c0.3,0.1,0.6,0.2,0.8,0.3h0.5
			c0.7,0,1.4,0,2.1,0.1c0.2-0.1,0.3-0.1,0.5-0.2l1.5-0.1l0.4,1.5c0.2,0.8-0.1,1.6-0.8,2c-0.6,1.1-1.2,2.3-1.6,3.5
			c1-0.5,1.9-1.1,2.8-1.7c0.1-0.9,0.3-1.8,0.7-2.6l0.1-0.1c0.5-1.1,1.5-2,2.6-2.4c0.9-0.3,1.9-0.2,2.7,0.3c1,0.6,1.4,1.8,0.9,2.9
			c-0.9,1.5-2.1,2.7-3.5,3.7v0.1c1.3,0,2.6-0.4,3.6-1.2c0-0.6,0.2-1.2,0.3-1.8c0.4-1.4,2-4.2,4.1-3.8c0.5,0.1,2,0.6,1.7,3.1
			c-0.3,1.6-1.2,3-2.4,4.1l0,0c0.1,0.2,0.1,0.3,0.2,0.5c0.3-0.1,0.5-0.2,0.8-0.4c1.7-1.1,3-2.8,3.8-4.7c0-0.6,0.2-1.1,0.6-1.5
			c0.6-0.7,1.6-0.8,2.3-0.3c0.3,0.2,0.6,0.6,0.7,1c0.5-0.1,0.9-0.1,1.4,0.2l0.7,0.4l0.2,0.8c0.2,0.7,0,1-0.8,2.8
			c-0.2,0.5-0.7,1.4-0.9,2.1c0.3,0.1,0.6,0.1,0.8,0.2c1-1,1.9-2.1,2.7-3.3c0.2-0.3,0.4-0.7,0.6-1c0.3-1.4,0.7-3.2,1.2-5.4
			c0.3-1.2,0.6-2.4,0.9-3.6l-2.4,0.9l-1.2-3.3l4.8-1.7c0.4-1.3,0.8-2.6,1.4-3.8c0.4-0.8,1.2-1.2,2-1.2c0.7,0.1,1.4,0.6,1.6,1.4
			c0.1,0.6,0.1,1.2,0,1.8c1.5-0.6,3-1,4.6-1.3v3.5h0.1c-0.5,0.1-2.7,0.8-5.5,1.8c-1,4.2-2.4,8.2-4.3,12.1c-0.1,0.5-0.2,1-0.3,1.5
			c0.9-0.7,1.9-1.2,3-1.6c0.3-0.2,0.6-0.4,0.8-0.5c0.8-0.3,1.4-0.8,1.9-1.5c0.1-0.9,0.4-1.7,0.9-2.4c0.5-0.7,1.5-1,2.3-0.5
			c1.4,0.8,0.8,2.3,0.5,3.1v0.1c0.2,0.8,0.3,1.5,0.3,2.3c0.9,0.1,1.9,0.1,2.8-0.2c1.7-1,5.1-3.4,5.1-3.4l2,2.8
			C116.3,28.7,112.8,31.2,111,32.2z"/>
	</g>
</g>
</svg>
