<svg xmlns="http://www.w3.org/2000/svg" viewBox="0 0 126 43.13"><defs><style>.cls-1{fill:#f1f2f2;stroke:#3f3f3f;stroke-miterlimit:10;}</style></defs><title>Asset 4</title><g id="Layer_2" data-name="Layer 2"><g id="trace"><path class="cls-1" d="M21.57,12.35a2.93,2.93,0,0,0-.15-.84,2.66,2.66,0,0,0-.8.36,16.05,16.05,0,0,0-2.9,2.85,6.81,6.81,0,0,0,3.55-1.47A1.13,1.13,0,0,0,21.57,12.35Z"/><path class="cls-1" d="M37.44,13.54h0Z"/><path class="cls-1" d="M.5,15.81V42.63H110.19A15.31,15.31,0,0,0,125.5,27.31V.5H15.81A15.31,15.31,0,0,0,.5,15.81ZM41.16,34.47a5.85,5.85,0,0,1-2.63.67,6.75,6.75,0,0,1-1.3-.12L36.91,35l-.16,0-.22-.07a3.13,3.13,0,0,1-.91-.46,3,3,0,0,1-.88-1L33.5,34a21.06,21.06,0,0,1-1.94.82c-.19.06-.36.12-.6.18a3.61,3.61,0,0,1-.37.08,2.74,2.74,0,0,1-.55,0,2.44,2.44,0,0,1-.73-.1,2.48,2.48,0,0,1-.74-.37,2.58,2.58,0,0,1-.87-1.17,4.24,4.24,0,0,1-.23-1.6c0-.42,0-.78.08-1.12v-.09a8.6,8.6,0,0,1-2.61.55H24.7a8.18,8.18,0,0,1-2.74,3,5.06,5.06,0,0,1-1.35.57,4.17,4.17,0,0,1-.79.12,2.88,2.88,0,0,1-2.59-1.2,32.64,32.64,0,0,1-3.3,1.1,3.34,3.34,0,0,1-.92.12,3.75,3.75,0,0,1-2.58-1c-1.73-1.62-2-4.81-1-9.76,2.29-10.44,8.87-15,9.15-15.16S21,7.4,23,8.31c.87.41,1.93,1.4,2.1,3.8a4.63,4.63,0,0,1-1.21,3.5c-2.33,2.58-7.33,2.82-7.9,2.83l0-1.17a24.91,24.91,0,0,0-3,7.63c-1.13,5.17-.2,6.32-.09,6.44a.26.26,0,0,0,.25.07,28.31,28.31,0,0,0,3.35-1.16,15.89,15.89,0,0,1,.41-2.86,10.51,10.51,0,0,1,1.82-4.17A6.75,6.75,0,0,1,23,20.61a2.71,2.71,0,0,1,.63,0,2.45,2.45,0,0,1,.81.21,2.57,2.57,0,0,1,.64.44,3.17,3.17,0,0,1,1.18,1.4,3.55,3.55,0,0,1,.17.51,4.39,4.39,0,0,1,.07.45l0,.56a11.72,11.72,0,0,1-.09,2.25,10.19,10.19,0,0,1-.19,1,8.75,8.75,0,0,0,1.41-.64h0A16.87,16.87,0,0,1,27.79,25a21.9,21.9,0,0,1,2.44-7.92,22.4,22.4,0,0,1,2.3-3.47,20.78,20.78,0,0,1,1.38-1.56c.24-.25.5-.49.75-.73L35,11l.27-.23a2.52,2.52,0,0,1,.65-.37,2,2,0,0,1,1.69.11,2.18,2.18,0,0,1,.78.74,2.75,2.75,0,0,1,.43,1.28,4.85,4.85,0,0,1-.16,1.5c-.19.76-.41,1.36-.61,2s-.42,1.24-.67,1.89-.53,1.26-.81,1.87a52.1,52.1,0,0,1-4,6.86c-.37.55-.75,1.08-1.16,1.63l-.17.22-.11.14c0,.12,0,.24,0,.36A13,13,0,0,1,31,31.17v.12c.33-.14.66-.28,1-.44.86-.42,1.77-.88,2.57-1.35a14.65,14.65,0,0,1,1-2.68,11,11,0,0,1,1.24-1.93,5.54,5.54,0,0,1,1-1A3,3,0,0,1,40,23.3a2.52,2.52,0,0,1,1.39.64,2.39,2.39,0,0,1,.75,1.56,3.53,3.53,0,0,1-.41,1.83,8.85,8.85,0,0,1-1.38,2,16.34,16.34,0,0,1-2.56,2.27l.08,0a3.28,3.28,0,0,0,.6.06,2.34,2.34,0,0,0,1.05-.26,2.15,2.15,0,0,0,.72-.61l3,1.77A5.41,5.41,0,0,1,41.16,34.47ZM111,32.24c-1.25.72-3.46.77-5.53.57a3.89,3.89,0,0,1-2.08,1.39,8.23,8.23,0,0,1-5.48-.44c-1.3.81-3.06,1.63-4.26.09l-.12-.16-.69.72a3.17,3.17,0,0,1-2.35.9,8.73,8.73,0,0,1-3.83-1.16,1.75,1.75,0,0,1-.85-2,14.89,14.89,0,0,1-2,1.73,4.33,4.33,0,0,1-3.85.91,3.64,3.64,0,0,1-2.11-1.86,8.21,8.21,0,0,1-5,1,3.44,3.44,0,0,1-2.29-1.49c-2.07,1.25-4.11,2.09-5.27,1.78a2.37,2.37,0,0,1-1.66-1.61l-.66.35c-2.82,1.46-5.24,1.68-7.18.66a6.94,6.94,0,0,1-3.28-5,19,19,0,0,1,5.88-17.3c3.25-2.94,6.1-4,8.46-3.23,2.93,1,3.64,4.29,3.71,4.67l-3.44.67c-.09-.43-.54-1.74-1.39-2-.49-.16-1.95-.23-5,2.51a15.46,15.46,0,0,0-4.79,14.06l0,.13a3.67,3.67,0,0,0,1.45,2.42c1.09.56,2.74-.06,3.93-.68,2.84-1.47,3-2.34,3-2.35A1.67,1.67,0,0,0,63.8,27L63,27c-.58,0-2.36-.12-2.45-1.79s1.76-2,2.46-2.09l.42-.06.4.13a8.12,8.12,0,0,1,.83.33l.47,0a10.26,10.26,0,0,1,2.1.08,1.37,1.37,0,0,1,.52-.16l1.47-.11.38,1.46a1.89,1.89,0,0,1-.78,2,21.33,21.33,0,0,0-1.6,3.55A24.32,24.32,0,0,0,70,28.65,12.2,12.2,0,0,1,70.67,26l.05-.12a4.77,4.77,0,0,1,2.61-2.4,3.34,3.34,0,0,1,2.7.33,2.22,2.22,0,0,1,.89,2.89,12.44,12.44,0,0,1-3.5,3.72l0,.08a6,6,0,0,0,3.63-1.16,8,8,0,0,1,.34-1.84c.43-1.42,2-4.21,4.11-3.78.47.1,2,.62,1.67,3.13a7,7,0,0,1-2.44,4.08h0a1.86,1.86,0,0,0,.24.49,2.42,2.42,0,0,0,.76-.4,9.9,9.9,0,0,0,3.75-4.73,2.11,2.11,0,0,1,.59-1.55,1.81,1.81,0,0,1,2.35-.26,1.78,1.78,0,0,1,.69,1,1.9,1.9,0,0,1,1.36.16l.69.37.23.8c.17.69,0,1-.82,2.8-.24.52-.65,1.37-.94,2.07a3.44,3.44,0,0,0,.84.17,25.68,25.68,0,0,0,2.68-3.25,11.5,11.5,0,0,0,.6-1c.28-1.42.67-3.18,1.22-5.39.29-1.16.6-2.39.93-3.61l-2.39.87-1.21-3.29,4.79-1.74a24.19,24.19,0,0,1,1.41-3.77,2,2,0,0,1,2-1.16,1.85,1.85,0,0,1,1.56,1.36,5.45,5.45,0,0,1,0,1.83,26.65,26.65,0,0,1,4.61-1.31l0,3.5h.12c-.52.08-2.71.79-5.52,1.77a64.08,64.08,0,0,1-4.27,12.09c-.1.55-.19,1-.26,1.5a10.23,10.23,0,0,1,3-1.6c.31-.2.59-.37.77-.46a4.17,4.17,0,0,0,1.87-1.46,4.38,4.38,0,0,1,.92-2.38,1.81,1.81,0,0,1,2.33-.52c1.39.78.81,2.32.5,3.14l0,.1a9.77,9.77,0,0,1,.28,2.3,7,7,0,0,0,2.81-.17c1.67-1,5.07-3.4,5.11-3.42l2,2.84C116.28,28.72,112.84,31.19,111,32.24Z"/></g></g></svg>