<svg xmlns="http://www.w3.org/2000/svg" viewBox="0 0 90.12 42.06"><defs><style>.cls-1{fill:#e73d30;}.cls-2{fill:#f6821f;}.cls-3{fill:#fddc03;}.cls-4{fill:#3a5eaa;}.cls-5{fill:#76c6b2;}</style></defs><title>Asset 2</title><g id="Layer_2" data-name="Layer 2"><g id="Layer_1-2" data-name="Layer 1"><polygon class="cls-1" points="45.06 37.07 13.24 25.09 0 25.09 45.06 42.06 90.11 25.09 76.88 25.09 45.06 37.07"/><polygon class="cls-2" points="45.06 30.8 13.24 18.82 0 18.82 45.06 35.78 90.11 18.82 76.88 18.82 45.06 30.8"/><polygon class="cls-3" points="45.06 24.53 13.24 12.54 0 12.54 45.06 29.51 90.11 12.54 76.88 12.54 45.06 24.53"/><polygon class="cls-4" points="45.06 18.25 13.24 6.27 0 6.27 45.06 23.24 90.11 6.27 76.88 6.27 45.06 18.25"/><polygon class="cls-5" points="45.06 11.98 13.24 0 0 0 45.06 16.97 90.11 0 76.88 0 45.06 11.98"/></g></g></svg>